# MagicaVoxel @ ephtracy

# material
mtllib Pillar.mtl
usemtl palette

# normals
vn -1 0 0
vn 1 0 0
vn 0 0 1
vn 0 0 -1
vn 0 -1 0
vn 0 1 0

# texcoords
vt 0.974609 0.5
vt 0.978516 0.5
vt 0.982422 0.5
vt 0.986328 0.5
vt 0.990234 0.5

# verts
v -9 0 8
v -9 0 -8
v -9 1 8
v -9 1 -8
v -8 1 7
v -8 1 -7
v -8 2 7
v -8 2 -7
v -8 39 7
v -8 39 -7
v -8 40 7
v -8 40 -7
v -7 2 6
v -7 2 -6
v -7 3 6
v -7 3 -6
v -7 38 6
v -7 38 -6
v -7 39 6
v -7 39 -6
v -6 3 5
v -6 3 2
v -6 3 1
v -6 3 -5
v -6 4 5
v -6 4 2
v -6 4 1
v -6 4 -5
v -6 37 5
v -6 37 -5
v -6 38 5
v -6 38 -5
v -4 4 1
v -4 4 -0
v -4 4 -1
v -4 11 1
v -4 11 -0
v -4 12 1
v -4 12 -0
v -4 32 1
v -4 32 -0
v -4 33 1
v -4 33 -0
v -4 37 1
v -4 37 -0
v -4 37 -1
v -3 4 2
v -3 4 1
v -3 4 -1
v -3 4 -2
v -3 11 1
v -3 12 1
v -3 18 2
v -3 18 1
v -3 19 2
v -3 19 1
v -3 29 -1
v -3 29 -2
v -3 30 -1
v -3 30 -2
v -3 32 1
v -3 33 1
v -3 37 2
v -3 37 1
v -3 37 -1
v -3 37 -2
v -2 4 3
v -2 4 2
v -2 4 -2
v -2 4 -3
v -2 12 3
v -2 12 2
v -2 13 3
v -2 13 2
v -2 18 2
v -2 19 2
v -2 19 -2
v -2 19 -3
v -2 20 -2
v -2 20 -3
v -2 25 3
v -2 25 2
v -2 26 3
v -2 26 2
v -2 29 -2
v -2 30 -2
v -2 37 3
v -2 37 2
v -2 37 -2
v -2 37 -3
v -1 4 4
v -1 4 3
v -1 4 -3
v -1 4 -4
v -1 10 -3
v -1 10 -4
v -1 11 -3
v -1 11 -4
v -1 12 3
v -1 13 3
v -1 19 -3
v -1 20 -3
v -1 25 3
v -1 26 3
v -1 37 4
v -1 37 3
v -1 37 -3
v -1 37 -4
v 1 4 4
v 1 4 3
v 1 4 -3
v 1 4 -4
v 1 12 3
v 1 13 3
v 1 19 -3
v 1 20 4
v 1 20 3
v 1 20 -3
v 1 21 4
v 1 21 3
v 1 28 3
v 1 29 3
v 1 37 4
v 1 37 3
v 1 37 -3
v 1 37 -4
v 2 4 3
v 2 4 2
v 2 4 -2
v 2 4 -3
v 2 5 2
v 2 6 2
v 2 12 3
v 2 12 2
v 2 13 3
v 2 13 2
v 2 19 -2
v 2 19 -3
v 2 20 -2
v 2 20 -3
v 2 28 3
v 2 28 2
v 2 29 3
v 2 29 2
v 2 37 3
v 2 37 2
v 2 37 -2
v 2 37 -3
v 3 4 2
v 3 4 1
v 3 4 -1
v 3 4 -2
v 3 5 2
v 3 5 1
v 3 6 2
v 3 6 1
v 3 18 -1
v 3 19 -1
v 3 25 -1
v 3 26 -1
v 3 30 1
v 3 31 1
v 3 35 -1
v 3 36 -1
v 3 37 2
v 3 37 1
v 3 37 -1
v 3 37 -2
v 4 4 1
v 4 4 -0
v 4 4 -1
v 4 18 -0
v 4 18 -1
v 4 19 -0
v 4 19 -1
v 4 25 -0
v 4 25 -1
v 4 26 -0
v 4 26 -1
v 4 30 1
v 4 30 -0
v 4 31 1
v 4 31 -0
v 4 35 -0
v 4 35 -1
v 4 36 -0
v 4 36 -1
v 4 37 1
v 4 37 -0
v 4 37 -1
v 6 3 5
v 6 3 -5
v 6 4 5
v 6 4 -5
v 6 37 5
v 6 37 -5
v 6 38 5
v 6 38 -5
v 7 2 6
v 7 2 -6
v 7 3 6
v 7 3 -6
v 7 38 6
v 7 38 -6
v 7 39 6
v 7 39 -6
v 8 1 7
v 8 1 -7
v 8 2 7
v 8 2 -7
v 8 39 7
v 8 39 -7
v 8 40 7
v 8 40 -7
v 9 0 8
v 9 0 -8
v 9 1 8
v 9 1 -8
v -9 0 8
v -9 1 8
v 9 0 8
v 9 1 8
v -8 1 7
v -8 2 7
v -8 39 7
v -8 40 7
v 8 1 7
v 8 2 7
v 8 39 7
v 8 40 7
v -7 2 6
v -7 3 6
v -7 38 6
v -7 39 6
v 7 2 6
v 7 3 6
v 7 38 6
v 7 39 6
v -6 3 5
v -6 4 5
v -6 37 5
v -6 38 5
v 3 3 5
v 3 4 5
v 4 3 5
v 4 4 5
v 6 3 5
v 6 4 5
v 6 37 5
v 6 38 5
v -1 4 4
v -1 37 4
v 0 4 4
v 0 20 4
v 0 21 4
v 0 37 4
v 1 4 4
v 1 20 4
v 1 21 4
v 1 37 4
v -2 4 3
v -2 12 3
v -2 13 3
v -2 25 3
v -2 26 3
v -2 37 3
v -1 4 3
v -1 12 3
v -1 13 3
v -1 25 3
v -1 26 3
v -1 37 3
v 1 4 3
v 1 12 3
v 1 13 3
v 1 20 3
v 1 21 3
v 1 28 3
v 1 29 3
v 1 37 3
v 2 4 3
v 2 12 3
v 2 13 3
v 2 28 3
v 2 29 3
v 2 37 3
v -3 4 2
v -3 18 2
v -3 19 2
v -3 37 2
v -2 4 2
v -2 12 2
v -2 13 2
v -2 18 2
v -2 19 2
v -2 25 2
v -2 26 2
v -2 37 2
v 2 4 2
v 2 5 2
v 2 6 2
v 2 12 2
v 2 13 2
v 2 28 2
v 2 29 2
v 2 37 2
v 3 4 2
v 3 5 2
v 3 6 2
v 3 37 2
v -4 4 1
v -4 11 1
v -4 12 1
v -4 32 1
v -4 33 1
v -4 37 1
v -3 4 1
v -3 11 1
v -3 12 1
v -3 18 1
v -3 19 1
v -3 32 1
v -3 33 1
v -3 37 1
v 3 4 1
v 3 5 1
v 3 6 1
v 3 30 1
v 3 31 1
v 3 37 1
v 4 4 1
v 4 30 1
v 4 31 1
v 4 37 1
v -4 4 -1
v -4 37 -1
v -3 4 -1
v -3 29 -1
v -3 30 -1
v -3 37 -1
v 3 4 -1
v 3 18 -1
v 3 19 -1
v 3 25 -1
v 3 26 -1
v 3 35 -1
v 3 36 -1
v 3 37 -1
v 4 4 -1
v 4 18 -1
v 4 19 -1
v 4 25 -1
v 4 26 -1
v 4 35 -1
v 4 36 -1
v 4 37 -1
v -3 4 -2
v -3 29 -2
v -3 30 -2
v -3 37 -2
v -2 4 -2
v -2 19 -2
v -2 20 -2
v -2 29 -2
v -2 30 -2
v -2 37 -2
v 2 4 -2
v 2 19 -2
v 2 20 -2
v 2 37 -2
v 3 4 -2
v 3 37 -2
v -2 4 -3
v -2 19 -3
v -2 20 -3
v -2 37 -3
v -1 4 -3
v -1 10 -3
v -1 11 -3
v -1 19 -3
v -1 20 -3
v -1 37 -3
v 1 4 -3
v 1 19 -3
v 1 20 -3
v 1 37 -3
v 2 4 -3
v 2 19 -3
v 2 20 -3
v 2 37 -3
v -1 4 -4
v -1 10 -4
v -1 11 -4
v -1 37 -4
v 0 4 -4
v 0 10 -4
v 0 11 -4
v 0 37 -4
v 1 4 -4
v 1 37 -4
v -6 3 -5
v -6 4 -5
v -6 37 -5
v -6 38 -5
v 4 3 -5
v 4 4 -5
v 5 3 -5
v 5 4 -5
v 6 3 -5
v 6 4 -5
v 6 37 -5
v 6 38 -5
v -7 2 -6
v -7 3 -6
v -7 38 -6
v -7 39 -6
v 7 2 -6
v 7 3 -6
v 7 38 -6
v 7 39 -6
v -8 1 -7
v -8 2 -7
v -8 39 -7
v -8 40 -7
v 8 1 -7
v 8 2 -7
v 8 39 -7
v 8 40 -7
v -9 0 -8
v -9 1 -8
v 9 0 -8
v 9 1 -8
v -9 0 8
v 9 0 8
v -9 0 -8
v 9 0 -8
v -6 37 5
v 6 37 5
v -1 37 4
v 0 37 4
v 1 37 4
v -2 37 3
v -1 37 3
v 1 37 3
v 2 37 3
v -3 37 2
v -2 37 2
v 2 37 2
v 3 37 2
v -4 37 1
v -3 37 1
v 3 37 1
v 4 37 1
v -4 37 -0
v 4 37 -0
v -4 37 -1
v -3 37 -1
v 3 37 -1
v 4 37 -1
v -3 37 -2
v -2 37 -2
v 2 37 -2
v 3 37 -2
v -2 37 -3
v -1 37 -3
v 1 37 -3
v 2 37 -3
v -1 37 -4
v 0 37 -4
v 1 37 -4
v -6 37 -5
v 6 37 -5
v -7 38 6
v 7 38 6
v -6 38 5
v 6 38 5
v -6 38 -5
v 6 38 -5
v -7 38 -6
v 7 38 -6
v -8 39 7
v 8 39 7
v -7 39 6
v 7 39 6
v -7 39 -6
v 7 39 -6
v -8 39 -7
v 8 39 -7
v -9 1 8
v 9 1 8
v -8 1 7
v 8 1 7
v -8 1 -7
v 8 1 -7
v -9 1 -8
v 9 1 -8
v -8 2 7
v 8 2 7
v -7 2 6
v 7 2 6
v -7 2 -6
v 7 2 -6
v -8 2 -7
v 8 2 -7
v -7 3 6
v 7 3 6
v -6 3 5
v 3 3 5
v 4 3 5
v 6 3 5
v -6 3 2
v -6 3 1
v -6 3 -5
v 4 3 -5
v 5 3 -5
v 6 3 -5
v -7 3 -6
v 7 3 -6
v -6 4 5
v 3 4 5
v 4 4 5
v 6 4 5
v -1 4 4
v 0 4 4
v 1 4 4
v 3 4 4
v 4 4 4
v -2 4 3
v -1 4 3
v 1 4 3
v 2 4 3
v 4 4 3
v 5 4 3
v -6 4 2
v -5 4 2
v -3 4 2
v -2 4 2
v 2 4 2
v 3 4 2
v 4 4 2
v 5 4 2
v -6 4 1
v -5 4 1
v -4 4 1
v -3 4 1
v 3 4 1
v 4 4 1
v -4 4 -0
v 4 4 -0
v -4 4 -1
v -3 4 -1
v 3 4 -1
v 4 4 -1
v -3 4 -2
v -2 4 -2
v 2 4 -2
v 3 4 -2
v -3 4 -3
v -2 4 -3
v -1 4 -3
v 1 4 -3
v 2 4 -3
v -3 4 -4
v -2 4 -4
v -1 4 -4
v 0 4 -4
v 1 4 -4
v 4 4 -4
v 5 4 -4
v -6 4 -5
v 4 4 -5
v 5 4 -5
v 6 4 -5
v -8 40 7
v 8 40 7
v -8 40 -7
v 8 40 -7

# faces
f 3/5/1 2/5/1 1/5/1
f 4/5/1 2/5/1 3/5/1
f 7/4/1 6/4/1 5/4/1
f 8/4/1 6/4/1 7/4/1
f 11/5/1 10/5/1 9/5/1
f 12/5/1 10/5/1 11/5/1
f 15/3/1 14/3/1 13/3/1
f 16/3/1 14/3/1 15/3/1
f 19/3/1 18/3/1 17/3/1
f 20/3/1 18/3/1 19/3/1
f 25/3/1 22/3/1 21/3/1
f 26/1/1 23/1/1 22/1/1
f 26/3/1 22/3/1 25/3/1
f 27/3/1 24/3/1 23/3/1
f 27/1/1 23/1/1 26/1/1
f 28/3/1 24/3/1 27/3/1
f 31/3/1 30/3/1 29/3/1
f 32/3/1 30/3/1 31/3/1
f 36/3/1 34/3/1 33/3/1
f 37/2/1 35/2/1 34/2/1
f 37/3/1 34/3/1 36/3/1
f 38/1/1 37/1/1 36/1/1
f 39/2/1 35/2/1 37/2/1
f 39/1/1 37/1/1 38/1/1
f 40/3/1 39/3/1 38/3/1
f 41/2/1 35/2/1 39/2/1
f 41/3/1 39/3/1 40/3/1
f 42/1/1 41/1/1 40/1/1
f 43/2/1 35/2/1 41/2/1
f 43/1/1 41/1/1 42/1/1
f 44/3/1 43/3/1 42/3/1
f 45/2/1 35/2/1 43/2/1
f 45/3/1 43/3/1 44/3/1
f 46/2/1 35/2/1 45/2/1
f 51/2/1 48/2/1 47/2/1
f 52/2/1 51/2/1 47/2/1
f 53/2/1 52/2/1 47/2/1
f 54/2/1 52/2/1 53/2/1
f 55/1/1 54/1/1 53/1/1
f 56/1/1 54/1/1 55/1/1
f 57/3/1 50/3/1 49/3/1
f 58/3/1 50/3/1 57/3/1
f 59/1/1 58/1/1 57/1/1
f 60/1/1 58/1/1 59/1/1
f 61/2/1 56/2/1 55/2/1
f 62/2/1 61/2/1 55/2/1
f 63/2/1 62/2/1 55/2/1
f 64/2/1 62/2/1 63/2/1
f 65/3/1 60/3/1 59/3/1
f 66/3/1 60/3/1 65/3/1
f 71/3/1 68/3/1 67/3/1
f 72/3/1 68/3/1 71/3/1
f 73/1/1 72/1/1 71/1/1
f 74/1/1 72/1/1 73/1/1
f 75/3/1 74/3/1 73/3/1
f 76/3/1 75/3/1 73/3/1
f 77/2/1 70/2/1 69/2/1
f 78/2/1 70/2/1 77/2/1
f 79/1/1 78/1/1 77/1/1
f 80/1/1 78/1/1 79/1/1
f 81/3/1 76/3/1 73/3/1
f 82/3/1 76/3/1 81/3/1
f 83/1/1 82/1/1 81/1/1
f 84/1/1 82/1/1 83/1/1
f 85/2/1 80/2/1 79/2/1
f 86/2/1 80/2/1 85/2/1
f 87/3/1 84/3/1 83/3/1
f 88/3/1 84/3/1 87/3/1
f 89/2/1 80/2/1 86/2/1
f 90/2/1 80/2/1 89/2/1
f 95/3/1 94/3/1 93/3/1
f 96/3/1 94/3/1 95/3/1
f 97/1/1 96/1/1 95/1/1
f 98/1/1 96/1/1 97/1/1
f 99/2/1 92/2/1 91/2/1
f 100/2/1 99/2/1 91/2/1
f 101/3/1 98/3/1 97/3/1
f 102/3/1 98/3/1 101/3/1
f 103/2/1 100/2/1 91/2/1
f 104/2/1 103/2/1 91/2/1
f 105/2/1 104/2/1 91/2/1
f 106/2/1 104/2/1 105/2/1
f 107/3/1 98/3/1 102/3/1
f 108/3/1 98/3/1 107/3/1
f 109/3/2 110/3/2 113/3/2
f 109/3/2 113/3/2 114/3/2
f 111/2/2 112/2/2 115/2/2
f 109/3/2 114/3/2 116/3/2
f 116/3/2 114/3/2 117/3/2
f 115/2/2 112/2/2 118/2/2
f 116/1/2 117/1/2 119/1/2
f 119/1/2 117/1/2 120/1/2
f 119/3/2 120/3/2 121/3/2
f 119/3/2 121/3/2 122/3/2
f 119/3/2 122/3/2 123/3/2
f 123/3/2 122/3/2 124/3/2
f 118/2/2 112/2/2 125/2/2
f 125/2/2 112/2/2 126/2/2
f 127/2/2 128/2/2 131/2/2
f 127/2/2 131/2/2 132/2/2
f 127/2/2 132/2/2 133/2/2
f 133/2/2 132/2/2 134/2/2
f 133/1/2 134/1/2 135/1/2
f 135/1/2 134/1/2 136/1/2
f 129/3/2 130/3/2 137/3/2
f 137/3/2 130/3/2 138/3/2
f 137/1/2 138/1/2 139/1/2
f 139/1/2 138/1/2 140/1/2
f 135/2/2 136/2/2 141/2/2
f 141/2/2 136/2/2 142/2/2
f 141/1/2 142/1/2 143/1/2
f 143/1/2 142/1/2 144/1/2
f 143/2/2 144/2/2 145/2/2
f 145/2/2 144/2/2 146/2/2
f 139/3/2 140/3/2 147/3/2
f 147/3/2 140/3/2 148/3/2
f 149/3/2 150/3/2 153/3/2
f 153/3/2 150/3/2 154/3/2
f 153/1/2 154/1/2 155/1/2
f 155/1/2 154/1/2 156/1/2
f 151/2/2 152/2/2 157/2/2
f 157/2/2 152/2/2 158/2/2
f 158/2/2 152/2/2 159/2/2
f 159/2/2 152/2/2 160/2/2
f 155/3/2 156/3/2 161/3/2
f 155/3/2 161/3/2 162/3/2
f 160/2/2 152/2/2 163/2/2
f 163/2/2 152/2/2 164/2/2
f 155/3/2 162/3/2 165/3/2
f 165/3/2 162/3/2 166/3/2
f 164/2/2 152/2/2 167/2/2
f 167/2/2 152/2/2 168/2/2
f 169/2/2 170/2/2 172/2/2
f 170/3/2 171/3/2 172/3/2
f 172/3/2 171/3/2 173/3/2
f 169/2/2 172/2/2 174/2/2
f 172/1/2 173/1/2 174/1/2
f 174/1/2 173/1/2 175/1/2
f 169/2/2 174/2/2 176/2/2
f 174/3/2 175/3/2 176/3/2
f 176/3/2 175/3/2 177/3/2
f 169/2/2 176/2/2 178/2/2
f 176/1/2 177/1/2 178/1/2
f 178/1/2 177/1/2 179/1/2
f 169/2/2 178/2/2 180/2/2
f 178/3/2 179/3/2 181/3/2
f 180/2/2 178/2/2 181/2/2
f 180/1/2 181/1/2 182/1/2
f 181/3/2 179/3/2 183/3/2
f 182/1/2 181/1/2 183/1/2
f 182/2/2 183/2/2 184/2/2
f 183/3/2 179/3/2 184/3/2
f 184/3/2 179/3/2 185/3/2
f 182/2/2 184/2/2 186/2/2
f 184/1/2 185/1/2 186/1/2
f 186/1/2 185/1/2 187/1/2
f 182/2/2 186/2/2 188/2/2
f 186/3/2 187/3/2 189/3/2
f 188/2/2 186/2/2 189/2/2
f 189/3/2 187/3/2 190/3/2
f 191/3/2 192/3/2 193/3/2
f 193/3/2 192/3/2 194/3/2
f 195/3/2 196/3/2 197/3/2
f 197/3/2 196/3/2 198/3/2
f 199/3/2 200/3/2 201/3/2
f 201/3/2 200/3/2 202/3/2
f 203/3/2 204/3/2 205/3/2
f 205/3/2 204/3/2 206/3/2
f 207/4/2 208/4/2 209/4/2
f 209/4/2 208/4/2 210/4/2
f 211/5/2 212/5/2 213/5/2
f 213/5/2 212/5/2 214/5/2
f 215/5/2 216/5/2 217/5/2
f 217/5/2 216/5/2 218/5/2
f 221/5/3 220/5/3 219/5/3
f 222/5/3 220/5/3 221/5/3
f 227/4/3 224/4/3 223/4/3
f 228/4/3 224/4/3 227/4/3
f 229/5/3 226/5/3 225/5/3
f 230/5/3 226/5/3 229/5/3
f 235/3/3 232/3/3 231/3/3
f 236/3/3 232/3/3 235/3/3
f 237/3/3 234/3/3 233/3/3
f 238/3/3 234/3/3 237/3/3
f 243/3/3 240/3/3 239/3/3
f 244/3/3 240/3/3 243/3/3
f 245/1/3 244/1/3 243/1/3
f 246/1/3 244/1/3 245/1/3
f 247/3/3 246/3/3 245/3/3
f 248/3/3 246/3/3 247/3/3
f 249/3/3 242/3/3 241/3/3
f 250/3/3 242/3/3 249/3/3
f 253/2/3 252/2/3 251/2/3
f 254/2/3 252/2/3 253/2/3
f 255/2/3 252/2/3 254/2/3
f 256/2/3 252/2/3 255/2/3
f 257/3/3 254/3/3 253/3/3
f 258/1/3 255/1/3 254/1/3
f 258/3/3 254/3/3 257/3/3
f 259/3/3 256/3/3 255/3/3
f 259/1/3 255/1/3 258/1/3
f 260/3/3 256/3/3 259/3/3
f 267/3/3 262/3/3 261/3/3
f 268/1/3 263/1/3 262/1/3
f 268/3/3 262/3/3 267/3/3
f 269/3/3 264/3/3 263/3/3
f 269/1/3 263/1/3 268/1/3
f 270/1/3 265/1/3 264/1/3
f 270/3/3 264/3/3 269/3/3
f 271/3/3 266/3/3 265/3/3
f 271/1/3 265/1/3 270/1/3
f 272/3/3 266/3/3 271/3/3
f 281/2/3 274/2/3 273/2/3
f 282/1/3 275/1/3 274/1/3
f 282/2/3 274/2/3 281/2/3
f 283/2/3 276/2/3 275/2/3
f 283/1/3 275/1/3 282/1/3
f 283/2/3 277/2/3 276/2/3
f 283/2/3 278/2/3 277/2/3
f 284/1/3 279/1/3 278/1/3
f 284/2/3 278/2/3 283/2/3
f 285/2/3 280/2/3 279/2/3
f 285/1/3 279/1/3 284/1/3
f 286/2/3 280/2/3 285/2/3
f 291/2/3 288/2/3 287/2/3
f 292/2/3 288/2/3 291/2/3
f 293/2/3 288/2/3 292/2/3
f 294/1/3 289/1/3 288/1/3
f 294/2/3 288/2/3 293/2/3
f 295/2/3 290/2/3 289/2/3
f 295/1/3 289/1/3 294/1/3
f 296/2/3 290/2/3 295/2/3
f 297/2/3 290/2/3 296/2/3
f 298/2/3 290/2/3 297/2/3
f 307/3/3 300/3/3 299/3/3
f 308/1/3 301/1/3 300/1/3
f 308/3/3 300/3/3 307/3/3
f 309/3/3 306/3/3 305/3/3
f 309/1/3 301/1/3 308/1/3
f 309/3/3 302/3/3 301/3/3
f 309/3/3 305/3/3 304/3/3
f 309/3/3 304/3/3 303/3/3
f 309/3/3 303/3/3 302/3/3
f 310/3/3 306/3/3 309/3/3
f 317/3/3 312/3/3 311/3/3
f 318/1/3 313/1/3 312/1/3
f 318/3/3 312/3/3 317/3/3
f 319/3/3 314/3/3 313/3/3
f 319/1/3 313/1/3 318/1/3
f 320/3/3 314/3/3 319/3/3
f 321/3/3 314/3/3 320/3/3
f 322/1/3 315/1/3 314/1/3
f 322/3/3 314/3/3 321/3/3
f 323/3/3 316/3/3 315/3/3
f 323/1/3 315/1/3 322/1/3
f 324/3/3 316/3/3 323/3/3
f 331/2/3 326/2/3 325/2/3
f 331/2/3 327/2/3 326/2/3
f 331/2/3 328/2/3 327/2/3
f 332/1/3 329/1/3 328/1/3
f 332/2/3 328/2/3 331/2/3
f 333/2/3 330/2/3 329/2/3
f 333/1/3 329/1/3 332/1/3
f 334/2/3 330/2/3 333/2/3
f 335/2/4 336/2/4 337/2/4
f 337/2/4 336/2/4 338/2/4
f 338/2/4 336/2/4 339/2/4
f 339/2/4 336/2/4 340/2/4
f 341/3/4 342/3/4 349/3/4
f 342/1/4 343/1/4 350/1/4
f 349/3/4 342/3/4 350/3/4
f 343/3/4 344/3/4 351/3/4
f 350/1/4 343/1/4 351/1/4
f 344/1/4 345/1/4 352/1/4
f 351/3/4 344/3/4 352/3/4
f 345/3/4 346/3/4 353/3/4
f 352/1/4 345/1/4 353/1/4
f 346/1/4 347/1/4 354/1/4
f 353/3/4 346/3/4 354/3/4
f 347/3/4 348/3/4 355/3/4
f 354/1/4 347/1/4 355/1/4
f 355/3/4 348/3/4 356/3/4
f 357/3/4 358/3/4 361/3/4
f 361/3/4 358/3/4 362/3/4
f 362/3/4 358/3/4 363/3/4
f 358/1/4 359/1/4 364/1/4
f 363/3/4 358/3/4 364/3/4
f 359/3/4 360/3/4 365/3/4
f 364/1/4 359/1/4 365/1/4
f 365/3/4 360/3/4 366/3/4
f 367/2/4 368/2/4 371/2/4
f 369/2/4 370/2/4 371/2/4
f 368/2/4 369/2/4 371/2/4
f 371/2/4 370/2/4 372/2/4
f 373/2/4 374/2/4 377/2/4
f 377/2/4 374/2/4 378/2/4
f 378/2/4 374/2/4 379/2/4
f 374/1/4 375/1/4 380/1/4
f 379/2/4 374/2/4 380/2/4
f 375/2/4 376/2/4 381/2/4
f 380/1/4 375/1/4 381/1/4
f 381/2/4 376/2/4 382/2/4
f 383/3/4 384/3/4 387/3/4
f 384/1/4 385/1/4 388/1/4
f 387/3/4 384/3/4 388/3/4
f 385/3/4 386/3/4 389/3/4
f 388/1/4 385/1/4 389/1/4
f 389/3/4 386/3/4 390/3/4
f 391/3/4 392/3/4 395/3/4
f 392/1/4 393/1/4 396/1/4
f 395/3/4 392/3/4 396/3/4
f 393/3/4 394/3/4 397/3/4
f 396/1/4 393/1/4 397/1/4
f 397/3/4 394/3/4 398/3/4
f 395/2/4 396/2/4 399/2/4
f 396/2/4 397/2/4 399/2/4
f 397/2/4 398/2/4 399/2/4
f 399/2/4 398/2/4 400/2/4
f 401/3/4 402/3/4 405/3/4
f 405/3/4 402/3/4 406/3/4
f 405/1/4 406/1/4 407/1/4
f 407/1/4 406/1/4 408/1/4
f 407/3/4 408/3/4 409/3/4
f 409/3/4 408/3/4 410/3/4
f 403/3/4 404/3/4 411/3/4
f 411/3/4 404/3/4 412/3/4
f 413/3/4 414/3/4 417/3/4
f 417/3/4 414/3/4 418/3/4
f 415/3/4 416/3/4 419/3/4
f 419/3/4 416/3/4 420/3/4
f 421/4/4 422/4/4 425/4/4
f 425/4/4 422/4/4 426/4/4
f 423/5/4 424/5/4 427/5/4
f 427/5/4 424/5/4 428/5/4
f 429/5/4 430/5/4 431/5/4
f 431/5/4 430/5/4 432/5/4
f 435/5/5 434/5/5 433/5/5
f 436/5/5 434/5/5 435/5/5
f 439/3/5 438/3/5 437/3/5
f 440/3/5 438/3/5 439/3/5
f 441/3/5 438/3/5 440/3/5
f 442/3/5 439/3/5 437/3/5
f 443/3/5 439/3/5 442/3/5
f 444/3/5 438/3/5 441/3/5
f 445/3/5 438/3/5 444/3/5
f 446/3/5 442/3/5 437/3/5
f 447/3/5 442/3/5 446/3/5
f 448/3/5 438/3/5 445/3/5
f 449/3/5 438/3/5 448/3/5
f 450/3/5 446/3/5 437/3/5
f 451/3/5 446/3/5 450/3/5
f 452/3/5 438/3/5 449/3/5
f 453/3/5 438/3/5 452/3/5
f 454/3/5 450/3/5 437/3/5
f 455/3/5 438/3/5 453/3/5
f 456/3/5 454/3/5 437/3/5
f 459/3/5 438/3/5 455/3/5
f 460/3/5 457/3/5 456/3/5
f 463/3/5 459/3/5 458/3/5
f 464/3/5 461/3/5 460/3/5
f 467/3/5 463/3/5 462/3/5
f 468/3/5 465/3/5 464/3/5
f 470/3/5 467/3/5 466/3/5
f 471/3/5 469/3/5 468/3/5
f 471/3/5 470/3/5 469/3/5
f 471/3/5 456/3/5 437/3/5
f 471/3/5 460/3/5 456/3/5
f 471/3/5 468/3/5 464/3/5
f 471/3/5 464/3/5 460/3/5
f 472/3/5 467/3/5 470/3/5
f 472/3/5 470/3/5 471/3/5
f 472/3/5 438/3/5 459/3/5
f 472/3/5 463/3/5 467/3/5
f 472/3/5 459/3/5 463/3/5
f 475/3/5 474/3/5 473/3/5
f 476/3/5 474/3/5 475/3/5
f 477/3/5 475/3/5 473/3/5
f 478/3/5 474/3/5 476/3/5
f 479/3/5 477/3/5 473/3/5
f 479/3/5 478/3/5 477/3/5
f 480/3/5 474/3/5 478/3/5
f 480/3/5 478/3/5 479/3/5
f 483/5/5 482/5/5 481/5/5
f 484/5/5 482/5/5 483/5/5
f 485/5/5 483/5/5 481/5/5
f 486/5/5 482/5/5 484/5/5
f 487/5/5 485/5/5 481/5/5
f 487/5/5 486/5/5 485/5/5
f 488/5/5 482/5/5 486/5/5
f 488/5/5 486/5/5 487/5/5
f 489/5/6 490/5/6 491/5/6
f 491/5/6 490/5/6 492/5/6
f 489/5/6 491/5/6 493/5/6
f 492/5/6 490/5/6 494/5/6
f 489/5/6 493/5/6 495/5/6
f 493/5/6 494/5/6 495/5/6
f 494/5/6 490/5/6 496/5/6
f 495/5/6 494/5/6 496/5/6
f 497/4/6 498/4/6 499/4/6
f 499/4/6 498/4/6 500/4/6
f 497/4/6 499/4/6 501/4/6
f 500/4/6 498/4/6 502/4/6
f 497/4/6 501/4/6 503/4/6
f 501/4/6 502/4/6 503/4/6
f 502/4/6 498/4/6 504/4/6
f 503/4/6 502/4/6 504/4/6
f 505/3/6 506/3/6 507/3/6
f 507/3/6 506/3/6 508/3/6
f 508/3/6 506/3/6 509/3/6
f 509/3/6 506/3/6 510/3/6
f 505/3/6 507/3/6 511/3/6
f 505/3/6 511/3/6 512/3/6
f 505/3/6 512/3/6 513/3/6
f 510/3/6 506/3/6 516/3/6
f 514/3/6 515/3/6 517/3/6
f 515/3/6 516/3/6 517/3/6
f 505/3/6 513/3/6 517/3/6
f 513/3/6 514/3/6 517/3/6
f 516/3/6 506/3/6 518/3/6
f 517/3/6 516/3/6 518/3/6
f 519/3/6 520/3/6 523/3/6
f 523/3/6 520/3/6 524/3/6
f 524/3/6 520/3/6 525/3/6
f 520/1/6 521/1/6 526/1/6
f 525/3/6 520/3/6 526/3/6
f 521/3/6 522/3/6 527/3/6
f 526/1/6 521/1/6 527/1/6
f 519/3/6 523/3/6 528/3/6
f 528/3/6 523/3/6 529/3/6
f 525/3/6 526/3/6 530/3/6
f 526/3/6 527/3/6 530/3/6
f 530/3/6 527/3/6 531/3/6
f 527/3/6 522/3/6 532/3/6
f 531/3/6 527/3/6 532/3/6
f 532/3/6 522/3/6 533/3/6
f 519/3/6 528/3/6 534/3/6
f 534/3/6 528/3/6 535/3/6
f 535/3/6 528/3/6 536/3/6
f 536/3/6 528/3/6 537/3/6
f 531/3/6 532/3/6 538/3/6
f 538/3/6 532/3/6 539/3/6
f 532/1/6 533/1/6 540/1/6
f 539/3/6 532/3/6 540/3/6
f 533/3/6 522/3/6 541/3/6
f 540/1/6 533/1/6 541/1/6
f 534/1/6 535/1/6 542/1/6
f 535/3/6 536/3/6 543/3/6
f 542/1/6 535/1/6 543/1/6
f 543/3/6 536/3/6 544/3/6
f 544/3/6 536/3/6 545/3/6
f 539/3/6 540/3/6 546/3/6
f 540/3/6 541/3/6 546/3/6
f 546/3/6 541/3/6 547/3/6
f 543/3/6 544/3/6 548/3/6
f 542/3/6 543/3/6 548/3/6
f 547/3/6 541/3/6 549/3/6
f 542/3/6 548/3/6 550/3/6
f 549/3/6 541/3/6 553/3/6
f 550/3/6 551/3/6 554/3/6
f 552/3/6 553/3/6 557/3/6
f 554/3/6 555/3/6 558/3/6
f 550/3/6 554/3/6 558/3/6
f 558/3/6 555/3/6 559/3/6
f 556/3/6 557/3/6 562/3/6
f 550/3/6 558/3/6 563/3/6
f 558/1/6 559/1/6 563/1/6
f 559/3/6 560/3/6 564/3/6
f 563/1/6 559/1/6 564/1/6
f 564/3/6 560/3/6 565/3/6
f 561/3/6 562/3/6 567/3/6
f 553/3/6 541/3/6 568/3/6
f 557/3/6 553/3/6 568/3/6
f 567/3/6 562/3/6 568/3/6
f 562/3/6 557/3/6 568/3/6
f 541/3/6 522/3/6 569/3/6
f 568/3/6 541/3/6 569/3/6
f 550/3/6 563/3/6 570/3/6
f 567/3/6 568/3/6 570/3/6
f 542/3/6 550/3/6 570/3/6
f 563/3/6 564/3/6 570/3/6
f 566/3/6 567/3/6 570/3/6
f 564/3/6 565/3/6 570/3/6
f 565/3/6 566/3/6 570/3/6
f 568/1/6 569/1/6 571/1/6
f 570/3/6 568/3/6 571/3/6
f 569/3/6 522/3/6 572/3/6
f 571/1/6 569/1/6 572/1/6
f 572/3/6 522/3/6 573/3/6
f 574/5/6 575/5/6 576/5/6
f 576/5/6 575/5/6 577/5/6
